SplineFontDB: 3.0
FontName: kardinal
FullName: kardinal
FamilyName: kardinal
Weight: Book
Copyright: seren arbazard
Version: 1.00
ItalicAngle: 0
UnderlinePosition: -120
UnderlineWidth: 48
Ascent: 819
Descent: 205
InvalidEm: 0
sfntRevision: 0x00050000
LayerCount: 2
Layer: 0 1 "Back" 1
Layer: 1 1 "Fore" 0
XUID: [1021 881 2055310830 5911232]
StyleMap: 0x0040
FSType: 8
OS2Version: 1
OS2_WeightWidthSlopeOnly: 0
OS2_UseTypoMetrics: 0
CreationTime: -2082844800
ModificationTime: 1504925184
PfmFamily: 17
TTFWeight: 400
TTFWidth: 5
LineGap: 0
VLineGap: 0
Panose: 2 11 6 0 0 0 0 0 0 0
OS2TypoAscent: 852
OS2TypoAOffset: 0
OS2TypoDescent: -300
OS2TypoDOffset: 0
OS2TypoLinegap: 0
OS2WinAscent: 852
OS2WinAOffset: 0
OS2WinDescent: 300
OS2WinDOffset: 0
HheadAscent: 852
HheadAOffset: 0
HheadDescent: -300
HheadDOffset: 0
OS2SubXSize: 512
OS2SubYSize: 512
OS2SubXOff: 0
OS2SubYOff: 368
OS2SupXSize: 512
OS2SupYSize: 512
OS2SupXOff: 0
OS2SupYOff: 440
OS2StrikeYSize: 52
OS2StrikeYPos: 264
OS2Vendor: 'Take'
OS2CodePages: 4000009f.dfd70000
OS2UnicodeRanges: 00000011.00000000.00000000.00000000
DEI: 91125
TtTable: prep
PUSHW_1
 511
SCANCTRL
PUSHB_1
 1
SCANTYPE
PUSHB_2
 1
 129
RCVT
WCVTP
PUSHB_2
 2
 130
RCVT
WCVTP
PUSHB_2
 3
 131
RCVT
WCVTP
PUSHB_2
 4
 132
RCVT
WCVTP
PUSHB_2
 5
 133
RCVT
WCVTP
PUSHB_2
 6
 134
RCVT
WCVTP
PUSHB_2
 7
 135
RCVT
WCVTP
PUSHB_2
 8
 136
RCVT
WCVTP
PUSHB_2
 9
 137
RCVT
WCVTP
PUSHB_2
 10
 138
RCVT
WCVTP
PUSHB_2
 11
 139
RCVT
WCVTP
PUSHB_2
 12
 140
RCVT
WCVTP
PUSHB_2
 13
 141
RCVT
WCVTP
PUSHB_2
 14
 142
RCVT
WCVTP
PUSHB_2
 15
 143
RCVT
WCVTP
PUSHB_2
 16
 144
RCVT
WCVTP
PUSHB_2
 17
 145
RCVT
WCVTP
PUSHB_2
 18
 146
RCVT
WCVTP
PUSHB_2
 19
 147
RCVT
WCVTP
PUSHB_2
 20
 148
RCVT
WCVTP
PUSHB_2
 21
 149
RCVT
WCVTP
PUSHB_2
 22
 150
RCVT
WCVTP
PUSHB_2
 23
 151
RCVT
WCVTP
PUSHB_2
 24
 152
RCVT
WCVTP
PUSHB_2
 25
 153
RCVT
WCVTP
PUSHB_2
 26
 154
RCVT
WCVTP
PUSHB_2
 27
 155
RCVT
WCVTP
PUSHB_2
 28
 156
RCVT
WCVTP
PUSHB_2
 29
 157
RCVT
WCVTP
PUSHB_2
 30
 158
RCVT
WCVTP
PUSHB_2
 31
 159

StartChar: .notdef
Encoding: 65536 -1 0
Width: 512
Flags: W
LayerCount: 2
Fore
SplineSet
206 400 m 1,0,-1
 206 500 l 1,1,-1
 306 500 l 1,2,-1
 306 400 l 1,3,-1
 206 400 l 1,0,-1
EndSplineSet
EndChar

StartChar: exclam
Encoding: 33 33 3
Width: 535
Flags: W
LayerCount: 2
Fore
SplineSet
66 0 m 1,0,-1
 66 410 l 1,1,-1
 66 820 l 1,2,-1
 146 820 l 1,3,-1
 146 624 l 1,4,5
 217 688 217 688 315 688 c 0,6,7
 418 688 418 688 490 617 c 1,8,-1
 436 555 l 1,9,-1
 432 559 l 2,10,11
 382 608 382 608 315 608 c 256,12,13
 248 608 248 608 197 559.5 c 128,-1,14
 146 511 146 511 146 476 c 2,15,-1
 146 410 l 1,16,-1
 146 0 l 1,17,-1
 66 0 l 1,0,-1
EndSplineSet
EndChar

StartChar: quotedbl
Encoding: 34 34 4
Width: 442
Flags: W
LayerCount: 2
Fore
SplineSet
169 820 m 1,0,-1
 169 544 l 1,1,-1
 84 544 l 1,2,-1
 84 820 l 1,3,-1
 169 820 l 1,0,-1
358 820 m 1,4,-1
 358 544 l 1,5,-1
 273 544 l 1,6,-1
 273 820 l 1,7,-1
 358 820 l 1,4,-1
EndSplineSet
EndChar

StartChar: dollar
Encoding: 36 36 6
Width: 778
Flags: W
LayerCount: 2
Fore
SplineSet
349 0 m 1,0,-1
 349 153 l 1,1,-1
 153 153 l 1,2,-1
 153 233 l 1,3,-1
 349 233 l 1,4,-1
 349 264 l 1,5,6
 308 273 308 273 276 305 c 0,7,8
 233 346 233 346 237 411 c 0,9,10
 237 412 237 412 236 412 c 0,11,12
 155 466 155 466 155 545 c 0,13,14
 155 584 155 584 173 614 c 1,15,-1
 0 754 l 1,16,-1
 50 816 l 1,17,-1
 272 638 l 1,18,19
 227 582 227 582 227 545 c 0,20,21
 227 521 227 521 307 453 c 1,22,23
 304 441 304 441 304 423 c 0,24,25
 304 382 304 382 320 365.5 c 128,-1,26
 336 349 336 349 349 344 c 1,27,-1
 349 820 l 1,28,-1
 429 820 l 1,29,-1
 429 344 l 1,30,31
 442 349 442 349 457.5 365.5 c 128,-1,32
 473 382 473 382 473 423 c 0,33,34
 473 441 473 441 471 453 c 1,35,36
 551 519 551 519 551 543 c 0,37,38
 551 584 551 584 506 640 c 1,39,-1
 728 818 l 1,40,-1
 778 756 l 1,41,-1
 603 615 l 1,42,43
 623 584 623 584 623 543 c 0,44,45
 623 464 623 464 550 411 c 0,46,47
 549 411 549 411 549 410 c 0,48,49
 545 346 545 346 502 305 c 0,50,51
 470 273 470 273 429 264 c 1,52,-1
 429 233 l 1,53,-1
 625 233 l 1,54,-1
 625 153 l 1,55,-1
 429 153 l 1,56,-1
 429 0 l 1,57,-1
 349 0 l 1,0,-1
EndSplineSet
EndChar

StartChar: percent
Encoding: 37 37 7
Width: 560
Flags: W
LayerCount: 2
Fore
SplineSet
284 165 m 256,0,1
 284 239 284 239 324 279 c 128,-1,2
 364 319 364 319 421 319 c 256,3,4
 478 319 478 319 518 279 c 128,-1,5
 558 239 558 239 558 165 c 256,6,7
 558 91 558 91 518.5 45.5 c 128,-1,8
 479 0 479 0 421 0 c 256,9,10
 363 0 363 0 323.5 45.5 c 128,-1,11
 284 91 284 91 284 165 c 256,0,1
357 165 m 0,12,13
 357 123 357 123 377 100 c 128,-1,14
 397 77 397 77 421 77 c 256,15,16
 445 77 445 77 464.5 100 c 128,-1,17
 484 123 484 123 484 165 c 0,18,19
 484 206 484 206 465 224 c 128,-1,20
 446 242 446 242 421 242 c 256,21,22
 396 242 396 242 376.5 224 c 128,-1,23
 357 206 357 206 357 165 c 0,12,13
0 578 m 256,24,25
 0 652 0 652 40 692 c 128,-1,26
 80 732 80 732 137 732 c 256,27,28
 194 732 194 732 234 692 c 128,-1,29
 274 652 274 652 274 578 c 256,30,31
 274 504 274 504 234.5 458.5 c 128,-1,32
 195 413 195 413 137 413 c 256,33,34
 79 413 79 413 39.5 458.5 c 128,-1,35
 0 504 0 504 0 578 c 256,24,25
73 578 m 0,36,37
 73 536 73 536 93 513 c 128,-1,38
 113 490 113 490 137 490 c 256,39,40
 161 490 161 490 180.5 513 c 128,-1,41
 200 536 200 536 200 578 c 0,42,43
 200 619 200 619 181 637 c 128,-1,44
 162 655 162 655 137 655 c 256,45,46
 112 655 112 655 92.5 637 c 128,-1,47
 73 619 73 619 73 578 c 0,36,37
37 0 m 1,48,-1
 479 820 l 1,49,-1
 571 820 l 1,50,-1
 129 0 l 1,51,-1
 37 0 l 1,48,-1
EndSplineSet
EndChar

StartChar: quotesingle
Encoding: 39 39 9
Width: 253
Flags: W
LayerCount: 2
Fore
SplineSet
169 820 m 1,0,-1
 169 544 l 1,1,-1
 84 544 l 1,2,-1
 84 820 l 1,3,-1
 169 820 l 1,0,-1
EndSplineSet
EndChar

StartChar: parenleft
Encoding: 40 40 10
Width: 351
Flags: W
LayerCount: 2
Fore
SplineSet
226 -204 m 1,0,1
 154 -72 154 -72 110 60 c 128,-1,2
 66 192 66 192 66 324 c 256,3,4
 66 456 66 456 108 588 c 128,-1,5
 150 720 150 720 226 852 c 1,6,-1
 306 852 l 1,7,8
 226 720 226 720 186 588 c 128,-1,9
 146 456 146 456 146 324 c 256,10,11
 146 192 146 192 186 60 c 128,-1,12
 226 -72 226 -72 306 -204 c 1,13,-1
 226 -204 l 1,0,1
EndSplineSet
EndChar

StartChar: parenright
Encoding: 41 41 11
Width: 351
Flags: W
LayerCount: 2
Fore
SplineSet
125 -204 m 1,0,-1
 45 -204 l 1,1,2
 125 -72 125 -72 165 60 c 128,-1,3
 205 192 205 192 205 324 c 256,4,5
 205 456 205 456 165 588 c 128,-1,6
 125 720 125 720 45 852 c 1,7,-1
 125 852 l 1,8,9
 201 720 201 720 243 588 c 128,-1,10
 285 456 285 456 285 324 c 256,11,12
 285 192 285 192 241 60 c 128,-1,13
 197 -72 197 -72 125 -204 c 1,0,-1
EndSplineSet
EndChar

StartChar: asterisk
Encoding: 42 42 12
Width: 627
Flags: W
LayerCount: 2
Fore
SplineSet
523 -12 m 1,0,-1
 311 207 l 1,1,-1
 101 -12 l 1,2,-1
 45 44 l 1,3,-1
 254 267 l 1,4,-1
 45 487 l 1,5,-1
 101 544 l 1,6,-1
 314 324 l 1,7,-1
 523 549 l 1,8,-1
 582 487 l 1,9,-1
 370 264 l 1,10,-1
 580 44 l 1,11,-1
 523 -12 l 1,0,-1
EndSplineSet
EndChar

StartChar: plus
Encoding: 43 43 13
Width: 634
Flags: W
LayerCount: 2
Fore
SplineSet
277 0 m 1,0,-1
 277 232 l 1,1,-1
 45 232 l 1,2,-1
 45 312 l 1,3,-1
 277 312 l 1,4,-1
 277 544 l 1,5,-1
 357 544 l 1,6,-1
 357 312 l 1,7,-1
 589 312 l 1,8,-1
 589 232 l 1,9,-1
 357 232 l 1,10,-1
 357 0 l 1,11,-1
 277 0 l 1,0,-1
EndSplineSet
EndChar

StartChar: comma
Encoding: 44 44 14
Width: 232
Flags: W
LayerCount: 2
Fore
SplineSet
66 100 m 1,0,-1
 166 100 l 1,1,-1
 166 0 l 1,2,-1
 86 -120 l 1,3,-1
 26 -120 l 1,4,-1
 66 0 l 1,5,-1
 66 100 l 1,0,-1
EndSplineSet
EndChar

StartChar: hyphen
Encoding: 45 45 15
Width: 634
Flags: W
LayerCount: 2
Fore
SplineSet
589 232 m 1,0,-1
 45 232 l 1,1,-1
 45 312 l 1,2,-1
 589 312 l 1,3,-1
 589 232 l 1,0,-1
EndSplineSet
EndChar

StartChar: period
Encoding: 46 46 16
Width: 232
Flags: W
LayerCount: 2
Fore
SplineSet
66 100 m 1,0,-1
 166 100 l 1,1,-1
 166 0 l 1,2,-1
 66 0 l 1,3,-1
 66 100 l 1,0,-1
EndSplineSet
EndChar

StartChar: slash
Encoding: 47 47 17
Width: 435
Flags: W
LayerCount: 2
Fore
SplineSet
0 0 m 1,0,-1
 348 820 l 1,1,-1
 435 820 l 1,2,-1
 87 0 l 1,3,-1
 0 0 l 1,0,-1
EndSplineSet
EndChar

StartChar: zero
Encoding: 48 48 18
Width: 587
Flags: W
LayerCount: 2
Fore
SplineSet
45 420 m 0,0,1
 45 621 45 621 118 720.5 c 128,-1,2
 191 820 191 820 294 820 c 256,3,4
 397 820 397 820 469.5 720.5 c 128,-1,5
 542 621 542 621 542 420 c 0,6,7
 542 221 542 221 469.5 104.5 c 128,-1,8
 397 -12 397 -12 294 -12 c 256,9,10
 191 -12 191 -12 118 104.5 c 128,-1,11
 45 221 45 221 45 420 c 0,0,1
125 420 m 0,12,13
 125 260 125 260 176 162 c 128,-1,14
 227 64 227 64 294 64 c 256,15,16
 361 64 361 64 411.5 162 c 128,-1,17
 462 260 462 260 462 420 c 0,18,19
 462 579 462 579 411.5 660 c 128,-1,20
 361 741 361 741 294 741 c 256,21,22
 227 741 227 741 176 660 c 128,-1,23
 125 579 125 579 125 420 c 0,12,13
EndSplineSet
EndChar

StartChar: one
Encoding: 49 49 19
Width: 302
Flags: W
LayerCount: 2
Fore
SplineSet
156 0 m 1,0,-1
 156 706 l 1,1,-1
 57 608 l 1,2,-1
 0 665 l 1,3,-1
 156 820 l 1,4,-1
 236 820 l 1,5,-1
 236 0 l 1,6,-1
 156 0 l 1,0,-1
EndSplineSet
EndChar

StartChar: two
Encoding: 50 50 20
Width: 345
Flags: W
LayerCount: 2
Fore
SplineSet
45 0 m 1,0,-1
 45 81 l 1,1,-1
 220 81 l 1,2,-1
 220 820 l 1,3,-1
 300 820 l 1,4,-1
 300 81 l 1,5,-1
 300 0 l 1,6,-1
 220 0 l 1,7,-1
 45 0 l 1,0,-1
EndSplineSet
EndChar

StartChar: three
Encoding: 51 51 21
Width: 359
Flags: W
LayerCount: 2
Fore
SplineSet
66 486 m 1,0,1
 133 486 133 486 183 523 c 0,2,3
 234 560 234 560 234 622 c 0,4,5
 234 681 234 681 183.5 710.5 c 128,-1,6
 133 740 133 740 66 740 c 1,7,-1
 66 820 l 1,8,9
 169 820 169 820 241 769 c 0,10,11
 314 718 314 718 314 622 c 256,12,13
 314 526 314 526 242 468 c 0,14,15
 199 434 199 434 146 420 c 1,16,-1
 146 0 l 1,17,-1
 66 0 l 1,18,-1
 66 410 l 1,19,-1
 66 486 l 1,0,1
EndSplineSet
EndChar

StartChar: four
Encoding: 52 52 22
Width: 508
Flags: W
LayerCount: 2
Fore
SplineSet
463 0 m 1,0,-1
 383 0 l 1,1,-1
 383 553 l 2,2,3
 383 657 383 657 332 707 c 0,4,5
 314 724 314 724 294 737 c 1,6,-1
 294 283 l 2,7,8
 294 142 294 142 221 72 c 0,9,10
 148 0 148 0 45 0 c 1,11,-1
 45 80 l 1,12,-1
 45 553 l 2,13,14
 45 694 45 694 118 764 c 0,15,16
 161 807 161 807 214 820 c 0,17,18
 254 827 254 827 294 820 c 0,19,20
 347 807 347 807 390 764 c 0,21,22
 463 694 463 694 463 553 c 2,23,-1
 463 0 l 1,0,-1
176 707 m 0,24,25
 125 657 125 657 125 553 c 2,26,-1
 125 100 l 1,27,28
 145 112 145 112 163 129 c 0,29,30
 214 179 214 179 214 283 c 2,31,-1
 214 737 l 1,32,33
 194 724 194 724 176 707 c 0,24,25
EndSplineSet
EndChar

StartChar: five
Encoding: 53 53 23
Width: 441
Flags: W
LayerCount: 2
Fore
SplineSet
66 0 m 1,0,-1
 66 420 l 1,1,-1
 0 420 l 1,2,-1
 0 500 l 1,3,-1
 66 500 l 1,4,-1
 66 820 l 1,5,-1
 146 820 l 1,6,-1
 396 500 l 1,7,-1
 396 420 l 1,8,-1
 146 420 l 1,9,-1
 146 0 l 1,10,-1
 66 0 l 1,0,-1
146 687 m 1,11,-1
 146 500 l 1,12,-1
 289 500 l 1,13,-1
 146 687 l 1,11,-1
EndSplineSet
EndChar

StartChar: six
Encoding: 54 54 24
Width: 370
Flags: W
LayerCount: 2
Fore
SplineSet
293 486 m 1,0,-1
 293 410 l 1,1,-1
 293 0 l 1,2,-1
 213 0 l 1,3,-1
 213 420 l 1,4,5
 160 434 160 434 117 468 c 0,6,7
 45 526 45 526 45 622 c 256,8,9
 45 718 45 718 118 769 c 0,10,11
 190 820 190 820 293 820 c 1,12,-1
 293 740 l 1,13,14
 226 740 226 740 175.5 710.5 c 128,-1,15
 125 681 125 681 125 622 c 0,16,17
 125 560 125 560 176 523 c 0,18,19
 226 486 226 486 293 486 c 1,0,-1
EndSplineSet
EndChar

StartChar: seven
Encoding: 55 55 25
Width: 557
Flags: W
LayerCount: 2
Fore
SplineSet
45 622 m 0,0,1
 45 718 45 718 109.5 769 c 128,-1,2
 174 820 174 820 266 820 c 0,3,4
 352 820 352 820 410 775 c 1,5,-1
 410 820 l 1,6,-1
 490 820 l 1,7,-1
 490 643 l 2,8,9
 491 633 491 633 491 622 c 256,10,11
 491 611 491 611 490 600 c 2,12,-1
 490 0 l 1,13,-1
 410 0 l 1,14,-1
 410 462 l 1,15,16
 352 410 352 410 266 410 c 0,17,18
 174 410 174 410 109.5 467.5 c 128,-1,19
 45 525 45 525 45 622 c 0,0,1
125 622 m 0,20,21
 125 560 125 560 166.5 523 c 128,-1,22
 208 486 208 486 266 486 c 256,23,24
 324 486 324 486 368 523 c 0,25,26
 405 555 405 555 410 605 c 1,27,-1
 410 638 l 1,28,29
 405 685 405 685 368 711 c 0,30,31
 324 740 324 740 266 740 c 256,32,33
 208 740 208 740 166.5 710.5 c 128,-1,34
 125 681 125 681 125 622 c 0,20,21
EndSplineSet
EndChar

StartChar: eight
Encoding: 56 56 26
Width: 524
Flags: W
LayerCount: 2
Fore
SplineSet
0 0 m 1,0,-1
 221 820 l 1,1,-1
 303 820 l 1,2,-1
 524 0 l 1,3,-1
 488 0 l 1,4,-1
 441 0 l 1,5,-1
 83 0 l 1,6,-1
 32 0 l 1,7,-1
 0 0 l 1,0,-1
262 667 m 1,8,-1
 104 80 l 1,9,-1
 420 80 l 1,10,-1
 262 667 l 1,8,-1
EndSplineSet
EndChar

StartChar: nine
Encoding: 57 57 27
Width: 520
Flags: W
LayerCount: 2
Fore
SplineSet
475 0 m 1,0,-1
 125 0 l 1,1,-1
 45 0 l 1,2,-1
 45 81 l 1,3,-1
 45 820 l 1,4,-1
 125 820 l 1,5,-1
 125 81 l 1,6,-1
 475 81 l 1,7,-1
 475 0 l 1,0,-1
EndSplineSet
EndChar

StartChar: colon
Encoding: 58 58 28
Width: 232
Flags: W
LayerCount: 2
Fore
SplineSet
66 100 m 1,0,-1
 166 100 l 1,1,-1
 166 0 l 1,2,-1
 66 0 l 1,3,-1
 66 100 l 1,0,-1
66 568 m 1,4,-1
 166 568 l 1,5,-1
 166 468 l 1,6,-1
 66 468 l 1,7,-1
 66 568 l 1,4,-1
EndSplineSet
EndChar

StartChar: semicolon
Encoding: 59 59 29
Width: 232
Flags: W
LayerCount: 2
Fore
SplineSet
66 568 m 1,0,-1
 166 568 l 1,1,-1
 166 468 l 1,2,-1
 66 468 l 1,3,-1
 66 568 l 1,0,-1
66 100 m 1,4,-1
 166 100 l 1,5,-1
 166 0 l 1,6,-1
 86 -120 l 1,7,-1
 26 -120 l 1,8,-1
 66 0 l 1,9,-1
 66 100 l 1,4,-1
EndSplineSet
EndChar

StartChar: less
Encoding: 60 60 30
Width: 496
Flags: W
LayerCount: 2
Fore
SplineSet
430 0 m 1,0,-1
 317 0 l 1,1,-1
 45 272 l 1,2,-1
 316 544 l 1,3,-1
 430 544 l 1,4,-1
 158 272 l 1,5,-1
 430 0 l 1,0,-1
EndSplineSet
EndChar

StartChar: equal
Encoding: 61 61 31
Width: 634
Flags: W
LayerCount: 2
Fore
SplineSet
493 232 m 1,0,-1
 141 232 l 1,1,-1
 141 312 l 1,2,-1
 493 312 l 1,3,-1
 493 232 l 1,0,-1
589 0 m 1,4,-1
 45 0 l 1,5,-1
 45 80 l 1,6,-1
 589 80 l 1,7,-1
 589 0 l 1,4,-1
EndSplineSet
EndChar

StartChar: greater
Encoding: 62 62 32
Width: 496
Flags: W
LayerCount: 2
Fore
SplineSet
66 0 m 1,0,-1
 338 272 l 1,1,-1
 66 544 l 1,2,-1
 180 544 l 1,3,-1
 451 272 l 1,4,-1
 179 0 l 1,5,-1
 66 0 l 1,0,-1
EndSplineSet
EndChar

StartChar: question
Encoding: 63 63 33
Width: 558
Flags: W
LayerCount: 2
Fore
SplineSet
45 222 m 256,0,1
 45 320 45 320 113 388 c 0,2,3
 129 404 129 404 146 416 c 1,4,5
 129 428 129 428 113 444 c 0,6,7
 45 512 45 512 45 610 c 256,8,9
 45 708 45 708 113 776 c 128,-1,10
 181 844 181 844 279 844 c 1,11,-1
 279 764 l 1,12,13
 215 764 215 764 170 718 c 0,14,15
 125 673 125 673 125 610 c 0,16,17
 125 546 125 546 170 501 c 128,-1,18
 215 456 215 456 279 456 c 0,19,20
 342 456 342 456 388 501 c 0,21,22
 433 546 433 546 433 610 c 1,23,-1
 513 610 l 1,24,25
 513 512 513 512 445 444 c 0,26,27
 429 428 429 428 412 416 c 1,28,29
 429 404 429 404 445 388 c 0,30,31
 513 320 513 320 513 222 c 256,32,33
 513 124 513 124 445 56 c 128,-1,34
 377 -12 377 -12 279 -12 c 256,35,36
 181 -12 181 -12 113 56 c 128,-1,37
 45 124 45 124 45 222 c 256,0,1
125 222 m 0,38,39
 125 158 125 158 170 113 c 128,-1,40
 215 68 215 68 279 68 c 0,41,42
 342 68 342 68 387.5 113 c 128,-1,43
 433 158 433 158 433 222 c 0,44,45
 433 285 433 285 387.5 330.5 c 128,-1,46
 342 376 342 376 279 376 c 0,47,48
 215 376 215 376 170 331 c 0,49,50
 125 285 125 285 125 222 c 0,38,39
EndSplineSet
EndChar

StartChar: A
Encoding: 65 65 35
Width: 641
Flags: W
LayerCount: 2
Fore
SplineSet
281 0 m 1,0,-1
 281 567 l 1,1,-1
 136 567 l 1,2,-1
 80 410 l 1,3,-1
 0 410 l 1,4,-1
 85 647 l 1,5,-1
 165 647 l 1,6,-1
 281 647 l 1,7,-1
 281 820 l 1,8,-1
 361 820 l 1,9,-1
 361 647 l 1,10,-1
 476 647 l 1,11,-1
 556 647 l 1,12,-1
 641 410 l 1,13,-1
 561 410 l 1,14,-1
 505 567 l 1,15,-1
 361 567 l 1,16,-1
 361 0 l 1,17,-1
 281 0 l 1,0,-1
EndSplineSet
EndChar

StartChar: B
Encoding: 66 66 36
Width: 620
Flags: W
LayerCount: 2
Fore
SplineSet
66 358 m 1,0,-1
 66 463 l 1,1,-1
 66 727 l 1,2,-1
 66 740 l 1,3,-1
 66 820 l 1,4,-1
 146 820 l 1,5,-1
 295 820 l 2,6,7
 296 820 296 820 297 820 c 0,8,9
 413 819 413 819 494 755 c 0,10,11
 575 689 575 689 575 595 c 256,12,13
 575 501 575 501 494 436 c 0,14,15
 476 421 476 421 456 410 c 1,16,17
 476 399 476 399 494 385 c 0,18,19
 575 319 575 319 575 225 c 256,20,21
 575 131 575 131 494 66 c 256,22,23
 413 1 413 1 297 0 c 0,24,25
 296 0 296 0 295 0 c 2,26,-1
 146 0 l 1,27,-1
 66 0 l 1,28,-1
 66 80 l 1,29,-1
 66 93 l 1,30,-1
 66 358 l 1,0,-1
256 80 m 1,31,-1
 333 80 l 1,32,33
 384 88 384 88 425 121 c 0,34,35
 479 164 479 164 479 225 c 256,36,37
 479 286 479 286 425 329 c 0,38,39
 370 370 370 370 295 370 c 2,40,-1
 146 370 l 1,41,-1
 146 80 l 1,42,-1
 256 80 l 1,31,-1
295 450 m 2,43,44
 370 450 370 450 425 491 c 0,45,46
 479 534 479 534 479 595 c 256,47,48
 479 656 479 656 425 700 c 0,49,50
 384 732 384 732 333 740 c 1,51,-1
 256 740 l 1,52,-1
 146 740 l 1,53,-1
 146 450 l 1,54,-1
 295 450 l 2,43,44
EndSplineSet
EndChar

StartChar: C
Encoding: 67 67 37
Width: 638
Flags: W
LayerCount: 2
Fore
SplineSet
45 0 m 1,0,-1
 45 370 l 1,1,-1
 45 410 l 1,2,-1
 45 450 l 1,3,-1
 279 450 l 1,4,-1
 279 740 l 1,5,-1
 45 740 l 1,6,-1
 45 820 l 1,7,-1
 279 820 l 1,8,-1
 319 820 l 1,9,-1
 359 820 l 1,10,-1
 359 450 l 1,11,-1
 513 450 l 1,12,-1
 513 820 l 1,13,-1
 593 820 l 1,14,-1
 593 450 l 1,15,-1
 593 410 l 1,16,-1
 593 370 l 1,17,-1
 359 370 l 1,18,-1
 359 80 l 1,19,-1
 593 80 l 1,20,-1
 593 0 l 1,21,-1
 359 0 l 1,22,-1
 319 0 l 1,23,-1
 279 0 l 1,24,-1
 279 370 l 1,25,-1
 125 370 l 1,26,-1
 125 0 l 1,27,-1
 45 0 l 1,0,-1
EndSplineSet
EndChar

StartChar: D
Encoding: 68 68 38
Width: 615
Flags: W
LayerCount: 2
Fore
SplineSet
108 820 m 1,0,-1
 188 820 l 1,1,-1
 188 419 l 2,2,3
 188 398 188 398 268 381 c 1,4,-1
 268 820 l 1,5,-1
 348 820 l 1,6,-1
 348 381 l 1,7,8
 428 398 428 398 428 419 c 2,9,-1
 428 820 l 1,10,-1
 508 820 l 1,11,-1
 508 442 l 2,12,13
 508 368 508 368 419 348 c 1,14,15
 517 344 517 344 570 344 c 1,16,-1
 570 273 l 1,17,18
 449 273 449 273 348 288 c 1,19,-1
 348 0 l 1,20,-1
 268 0 l 1,21,-1
 268 288 l 1,22,23
 166 273 166 273 45 273 c 1,24,-1
 45 344 l 1,25,26
 99 344 99 344 197 348 c 1,27,28
 108 368 108 368 108 442 c 2,29,-1
 108 820 l 1,0,-1
EndSplineSet
EndChar

StartChar: E
Encoding: 69 69 39
Width: 561
Flags: W
LayerCount: 2
Fore
SplineSet
45 370 m 1,0,-1
 45 450 l 1,1,-1
 45 740 l 1,2,-1
 45 820 l 1,3,-1
 125 820 l 1,4,-1
 516 820 l 1,5,-1
 516 740 l 1,6,-1
 125 740 l 1,7,-1
 125 450 l 1,8,-1
 516 450 l 1,9,-1
 516 370 l 1,10,-1
 125 370 l 1,11,-1
 125 80 l 1,12,-1
 516 80 l 1,13,-1
 516 0 l 1,14,-1
 125 0 l 1,15,-1
 45 0 l 1,16,-1
 45 80 l 1,17,-1
 45 370 l 1,0,-1
EndSplineSet
EndChar

StartChar: F
Encoding: 70 70 40
Width: 704
Flags: W
LayerCount: 2
Fore
SplineSet
312 0 m 1,0,-1
 312 286 l 1,1,-1
 312 287 l 1,2,3
 285 273 285 273 217 273 c 0,4,5
 146 273 146 273 95.5 318 c 128,-1,6
 45 363 45 363 45 450 c 2,7,-1
 45 587 l 1,8,-1
 125 587 l 1,9,-1
 125 435 l 2,10,11
 128 396 128 396 152 377 c 0,12,13
 181 352 181 352 217 352 c 0,14,15
 254 352 254 352 283 375.5 c 128,-1,16
 312 399 312 399 312 450 c 1,17,-1
 312 450 l 1,18,-1
 312 627 l 1,19,-1
 312 627 l 1,20,-1
 312 627 l 1,21,-1
 312 820 l 1,22,-1
 392 820 l 1,23,-1
 392 627 l 1,24,-1
 392 450 l 1,25,-1
 392 450 l 1,26,27
 392 399 392 399 421 376 c 0,28,29
 450 352 450 352 487 352 c 0,30,31
 523 352 523 352 552 377 c 0,32,33
 576 396 576 396 579 435 c 2,34,-1
 579 587 l 1,35,-1
 659 587 l 1,36,-1
 659 450 l 2,37,38
 659 363 659 363 608.5 318 c 128,-1,39
 558 273 558 273 487 273 c 0,40,41
 419 273 419 273 392 287 c 1,42,-1
 392 286 l 1,43,-1
 392 286 l 1,44,-1
 392 286 l 1,45,-1
 392 286 l 1,46,-1
 392 0 l 1,47,-1
 312 0 l 1,0,-1
EndSplineSet
EndChar

StartChar: G
Encoding: 71 71 41
Width: 708
Flags: W
LayerCount: 2
Fore
SplineSet
314 0 m 1,0,-1
 314 276 l 1,1,2
 248 287 248 287 199 337 c 0,3,4
 135 400 135 400 135 492 c 0,5,6
 135 557 135 557 167 608 c 1,7,-1
 -45 820 l 1,8,-1
 69 820 l 1,9,-1
 282 609 l 1,10,11
 268 601 268 601 256 588 c 0,12,13
 216 548 216 548 216 492 c 0,14,15
 216 434 216 434 256 394 c 0,16,17
 281 369 281 369 314 359 c 1,18,-1
 314 820 l 1,19,-1
 394 820 l 1,20,-1
 394 360 l 1,21,22
 425 369 425 369 451 394 c 0,23,24
 491 434 491 434 491 492 c 0,25,26
 491 548 491 548 450 588 c 0,27,28
 439 600 439 600 427 608 c 1,29,-1
 639 820 l 1,30,-1
 753 820 l 1,31,-1
 541 608 l 1,32,33
 573 557 573 557 573 492 c 0,34,35
 573 400 573 400 509 337 c 0,36,37
 460 287 460 287 394 276 c 1,38,-1
 394 0 l 1,39,-1
 314 0 l 1,0,-1
EndSplineSet
EndChar

StartChar: H
Encoding: 72 72 42
Width: 656
Flags: W
LayerCount: 2
Fore
SplineSet
45 0 m 1,0,-1
 282 410 l 1,1,-1
 45 820 l 1,2,-1
 138 820 l 1,3,-1
 328 491 l 1,4,-1
 518 820 l 1,5,-1
 611 820 l 1,6,-1
 374 410 l 1,7,-1
 611 0 l 1,8,-1
 519 0 l 1,9,-1
 328 330 l 1,10,-1
 137 0 l 1,11,-1
 45 0 l 1,0,-1
EndSplineSet
EndChar

StartChar: I
Encoding: 73 73 43
Width: 580
Flags: W
LayerCount: 2
Fore
SplineSet
535 80 m 1,0,-1
 535 0 l 1,1,2
 338 0 338 0 204 120 c 0,3,4
 86 225 86 225 72 370 c 1,5,-1
 0 370 l 1,6,-1
 0 450 l 1,7,-1
 72 450 l 1,8,9
 86 595 86 595 204 700 c 0,10,11
 338 820 338 820 535 820 c 1,12,-1
 535 740 l 1,13,14
 372 740 372 740 262 644 c 0,15,16
 168 562 168 562 154 450 c 1,17,-1
 424 450 l 1,18,-1
 424 370 l 1,19,-1
 154 370 l 1,20,21
 168 258 168 258 262 176 c 0,22,23
 372 80 372 80 535 80 c 1,0,-1
EndSplineSet
EndChar

StartChar: J
Encoding: 74 74 44
Width: 376
Flags: W
LayerCount: 2
Fore
SplineSet
45 145 m 1,0,-1
 125 145 l 1,1,2
 125 118 125 118 143 92 c 0,3,4
 161 68 161 68 188 68 c 0,5,6
 214 68 214 68 232.5 93 c 128,-1,7
 251 118 251 118 251 155 c 256,8,9
 251 192 251 192 232.5 219 c 128,-1,10
 214 246 214 246 188 246 c 0,11,12
 128 246 128 246 87 295 c 0,13,14
 45 344 45 344 45 416 c 0,15,16
 45 486 45 486 87 532 c 0,17,18
 88 533 88 533 89 533 c 1,19,20
 88 556 88 556 87 556 c 0,21,22
 45 603 45 603 45 674 c 256,23,24
 45 745 45 745 86.5 794.5 c 128,-1,25
 128 844 128 844 188 844 c 256,26,27
 248 844 248 844 289.5 794.5 c 128,-1,28
 331 745 331 745 331 685 c 1,29,-1
 251 685 l 1,30,31
 251 712 251 712 233 738 c 256,32,33
 215 764 215 764 188 764 c 0,34,35
 162 764 162 764 143.5 738 c 128,-1,36
 125 712 125 712 125 674 c 0,37,38
 125 638 125 638 143.5 610.5 c 128,-1,39
 162 583 162 583 188 583 c 0,40,41
 248 583 248 583 290 536 c 0,42,43
 331 486 331 486 331 416 c 0,44,45
 331 344 331 344 290 297 c 0,46,47
 288 297 288 297 287 297 c 1,48,49
 288 274 288 274 289 274 c 0,50,51
 331 227 331 227 331 155 c 0,52,53
 331 85 331 85 289.5 36.5 c 128,-1,54
 248 -12 248 -12 188 -12 c 256,55,56
 128 -12 128 -12 86.5 36.5 c 128,-1,57
 45 85 45 85 45 145 c 1,0,-1
144 479 m 0,58,59
 125 453 125 453 125 416 c 256,60,61
 125 379 125 379 144 353 c 0,62,63
 162 326 162 326 188 326 c 256,64,65
 214 326 214 326 233 351 c 0,66,67
 251 377 251 377 251 416 c 0,68,69
 251 451 251 451 233 479 c 0,70,71
 214 503 214 503 188 503 c 256,72,73
 162 503 162 503 144 479 c 0,58,59
EndSplineSet
EndChar

StartChar: K
Encoding: 75 75 45
Width: 582
Flags: W
LayerCount: 2
Fore
SplineSet
76 0 m 1,0,-1
 233 370 l 1,1,-1
 109 370 l 1,2,-1
 109 450 l 1,3,-1
 267 450 l 1,4,-1
 390 740 l 1,5,-1
 45 740 l 1,6,-1
 45 820 l 1,7,-1
 436 820 l 1,8,-1
 516 820 l 1,9,-1
 359 450 l 1,10,-1
 484 450 l 1,11,-1
 484 370 l 1,12,-1
 325 370 l 1,13,-1
 168 0 l 1,14,-1
 76 0 l 1,0,-1
EndSplineSet
EndChar

StartChar: L
Encoding: 76 76 46
Width: 648
Flags: W
LayerCount: 2
Fore
SplineSet
284 0 m 1,0,-1
 284 740 l 1,1,-1
 0 740 l 1,2,-1
 0 820 l 1,3,-1
 284 820 l 1,4,-1
 364 820 l 1,5,-1
 648 820 l 1,6,-1
 648 740 l 1,7,-1
 364 740 l 1,8,-1
 364 0 l 1,9,-1
 284 0 l 1,0,-1
EndSplineSet
EndChar

StartChar: M
Encoding: 77 77 47
Width: 679
Flags: W
LayerCount: 2
Fore
SplineSet
80 98 m 1,0,-1
 80 370 l 1,1,-1
 0 370 l 1,2,-1
 0 450 l 1,3,-1
 80 450 l 1,4,-1
 80 820 l 1,5,-1
 83 820 l 2,6,7
 307 820 307 820 453 717 c 0,8,9
 588 624 588 624 599 450 c 1,10,-1
 679 450 l 1,11,-1
 679 370 l 1,12,-1
 598 370 l 1,13,14
 582 205 582 205 453 102 c 0,15,16
 305 -17 305 -17 80 0 c 1,17,-1
 80 98 l 1,0,-1
384 162 m 0,18,19
 500 242 500 242 519 370 c 1,20,-1
 157 370 l 1,21,-1
 157 74 l 1,22,23
 278 91 278 91 384 162 c 0,18,19
383 657 m 0,24,25
 277 715 277 715 157 729 c 1,26,-1
 157 450 l 1,27,-1
 521 450 l 1,28,29
 508 587 508 587 383 657 c 0,24,25
EndSplineSet
EndChar

StartChar: N
Encoding: 78 78 48
Width: 618
Flags: W
LayerCount: 2
Fore
SplineSet
0 0 m 1,0,-1
 267 820 l 1,1,-1
 351 820 l 1,2,-1
 618 0 l 1,3,-1
 535 0 l 1,4,-1
 459 233 l 1,5,-1
 159 233 l 1,6,-1
 83 0 l 1,7,-1
 0 0 l 1,0,-1
309 691 m 1,8,-1
 185 313 l 1,9,-1
 433 313 l 1,10,-1
 309 691 l 1,8,-1
EndSplineSet
EndChar

StartChar: O
Encoding: 79 79 49
Width: 580
Flags: W
LayerCount: 2
Fore
SplineSet
45 80 m 1,0,1
 208 80 208 80 318 176 c 0,2,3
 412 258 412 258 426 370 c 1,4,-1
 156 370 l 1,5,-1
 156 450 l 1,6,-1
 426 450 l 1,7,8
 412 562 412 562 318 644 c 0,9,10
 208 740 208 740 45 740 c 1,11,-1
 45 820 l 1,12,13
 242 820 242 820 376 700 c 0,14,15
 494 595 494 595 508 450 c 1,16,-1
 580 450 l 1,17,-1
 580 370 l 1,18,-1
 508 370 l 1,19,20
 494 225 494 225 376 120 c 0,21,22
 242 0 242 0 45 0 c 1,23,-1
 45 80 l 1,0,1
EndSplineSet
EndChar

StartChar: P
Encoding: 80 80 50
Width: 718
Flags: W
LayerCount: 2
Fore
SplineSet
45 410 m 256,0,1
 45 484 45 484 96.5 535.5 c 128,-1,2
 148 587 148 587 222 587 c 0,3,4
 239 587 239 587 254 584 c 1,5,-1
 254 505 l 1,6,7
 239 510 239 510 222 510 c 0,8,9
 181 510 181 510 153 482 c 128,-1,10
 125 454 125 454 125 413 c 256,11,12
 125 372 125 372 153 344 c 128,-1,13
 181 316 181 316 222 316 c 256,14,15
 263 316 263 316 291 344 c 256,16,17
 319 372 319 372 319 412 c 1,18,-1
 319 412 l 1,19,-1
 319 412 l 1,20,-1
 319 414 l 1,21,-1
 319 820 l 1,22,-1
 399 820 l 1,23,-1
 399 563 l 1,24,25
 441 591 441 591 496 591 c 0,26,27
 570 591 570 591 621.5 539.5 c 128,-1,28
 673 488 673 488 673 414 c 256,29,30
 673 340 673 340 621.5 288.5 c 128,-1,31
 570 237 570 237 496 237 c 0,32,33
 479 237 479 237 464 240 c 1,34,-1
 464 319 l 1,35,36
 479 314 479 314 496 314 c 0,37,38
 537 314 537 314 565 342 c 128,-1,39
 593 370 593 370 593 411 c 256,40,41
 593 452 593 452 565 480 c 128,-1,42
 537 508 537 508 496 508 c 256,43,44
 455 508 455 508 427 480 c 256,45,46
 399 452 399 452 399 412 c 1,47,-1
 399 412 l 1,48,-1
 399 412 l 1,49,-1
 399 410 l 1,50,-1
 399 0 l 1,51,-1
 319 0 l 1,52,-1
 319 261 l 1,53,54
 277 233 277 233 222 233 c 0,55,56
 148 233 148 233 96.5 284.5 c 128,-1,57
 45 336 45 336 45 410 c 256,0,1
EndSplineSet
EndChar

StartChar: Q
Encoding: 81 81 51
Width: 558
Flags: W
LayerCount: 2
Fore
SplineSet
45 222 m 256,0,1
 45 320 45 320 113 388 c 0,2,3
 129 404 129 404 146 416 c 1,4,5
 129 428 129 428 113 444 c 0,6,7
 45 512 45 512 45 610 c 256,8,9
 45 708 45 708 113 776 c 128,-1,10
 181 844 181 844 279 844 c 256,11,12
 377 844 377 844 445 776 c 128,-1,13
 513 708 513 708 513 610 c 256,14,15
 513 512 513 512 445 444 c 0,16,17
 429 428 429 428 412 416 c 1,18,19
 429 404 429 404 445 388 c 0,20,21
 513 320 513 320 513 222 c 256,22,23
 513 124 513 124 445 56 c 128,-1,24
 377 -12 377 -12 279 -12 c 256,25,26
 181 -12 181 -12 113 56 c 128,-1,27
 45 124 45 124 45 222 c 256,0,1
125 222 m 0,28,29
 125 158 125 158 170 113 c 128,-1,30
 215 68 215 68 279 68 c 0,31,32
 342 68 342 68 387.5 113 c 128,-1,33
 433 158 433 158 433 222 c 0,34,35
 433 285 433 285 387.5 330.5 c 128,-1,36
 342 376 342 376 279 376 c 0,37,38
 215 376 215 376 170 331 c 0,39,40
 125 285 125 285 125 222 c 0,28,29
125 610 m 0,41,42
 125 546 125 546 170 501 c 128,-1,43
 215 456 215 456 279 456 c 0,44,45
 342 456 342 456 388 501 c 0,46,47
 433 546 433 546 433 610 c 0,48,49
 433 673 433 673 387.5 718.5 c 128,-1,50
 342 764 342 764 279 764 c 0,51,52
 215 764 215 764 170 718.5 c 128,-1,53
 125 673 125 673 125 610 c 0,41,42
EndSplineSet
EndChar

StartChar: R
Encoding: 82 82 52
Width: 646
Flags: W
LayerCount: 2
Fore
SplineSet
45 370 m 1,0,-1
 45 450 l 1,1,-1
 203 450 l 1,2,3
 197 532 197 532 165 615 c 0,4,5
 125 717 125 717 45 820 c 1,6,-1
 125 820 l 1,7,8
 201 717 201 717 243 615 c 0,9,10
 277 532 277 532 283 450 c 1,11,-1
 363 450 l 1,12,13
 369 532 369 532 403 615 c 0,14,15
 445 717 445 717 521 820 c 1,16,-1
 601 820 l 1,17,18
 521 717 521 717 481 615 c 0,19,20
 449 532 449 532 443 450 c 1,21,-1
 601 450 l 1,22,-1
 601 370 l 1,23,-1
 443 370 l 1,24,25
 449 287 449 287 481 205 c 0,26,27
 521 102 521 102 601 0 c 1,28,-1
 521 0 l 1,29,30
 449 102 449 102 405 205 c 0,31,32
 370 287 370 287 363 370 c 1,33,-1
 283 370 l 1,34,35
 276 287 276 287 241 205 c 0,36,37
 197 102 197 102 125 0 c 1,38,-1
 45 0 l 1,39,40
 125 102 125 102 165 205 c 0,41,42
 197 287 197 287 203 370 c 1,43,-1
 45 370 l 1,0,-1
EndSplineSet
EndChar

StartChar: S
Encoding: 83 83 53
Width: 561
Flags: W
LayerCount: 2
Fore
SplineSet
45 517 m 1,0,-1
 45 597 l 1,1,-1
 125 597 l 1,2,-1
 125 820 l 1,3,-1
 205 820 l 1,4,-1
 205 597 l 1,5,-1
 356 597 l 1,6,-1
 356 820 l 1,7,-1
 436 820 l 1,8,-1
 436 597 l 1,9,-1
 516 597 l 1,10,-1
 516 517 l 1,11,-1
 436 517 l 1,12,-1
 436 247 l 2,13,14
 436 141 436 141 380 91 c 1,15,16
 442 76 442 76 505 76 c 1,17,-1
 505 0 l 1,18,19
 384 0 384 0 281 37 c 1,20,21
 177 0 177 0 56 0 c 1,22,-1
 56 76 l 1,23,24
 119 76 119 76 181 91 c 1,25,26
 125 141 125 141 125 247 c 2,27,-1
 125 517 l 1,28,-1
 45 517 l 1,0,-1
205 345 m 1,29,-1
 205 212 l 2,30,31
 205 159 205 159 281 124 c 1,32,33
 356 159 356 159 356 212 c 2,34,-1
 356 345 l 1,35,-1
 356 517 l 1,36,-1
 205 517 l 1,37,-1
 205 345 l 1,29,-1
EndSplineSet
EndChar

StartChar: T
Encoding: 84 84 54
Width: 561
Flags: W
LayerCount: 2
Fore
SplineSet
45 0 m 1,0,-1
 45 370 l 1,1,-1
 45 450 l 1,2,-1
 45 740 l 1,3,-1
 45 820 l 1,4,-1
 125 820 l 1,5,-1
 516 820 l 1,6,-1
 516 740 l 1,7,-1
 125 740 l 1,8,-1
 125 450 l 1,9,-1
 516 450 l 1,10,-1
 516 370 l 1,11,-1
 125 370 l 1,12,-1
 125 0 l 1,13,-1
 45 0 l 1,0,-1
EndSplineSet
EndChar

StartChar: U
Encoding: 85 85 55
Width: 561
Flags: W
LayerCount: 2
Fore
SplineSet
515 370 m 1,0,-1
 515 80 l 1,1,-1
 515 0 l 1,2,-1
 435 0 l 1,3,-1
 44 0 l 1,4,-1
 44 80 l 1,5,-1
 435 80 l 1,6,-1
 435 370 l 1,7,-1
 44 370 l 1,8,-1
 44 450 l 1,9,-1
 435 450 l 1,10,-1
 435 740 l 1,11,-1
 44 740 l 1,12,-1
 44 820 l 1,13,-1
 435 820 l 1,14,-1
 515 820 l 1,15,-1
 515 740 l 1,16,-1
 515 450 l 1,17,-1
 515 370 l 1,0,-1
EndSplineSet
EndChar

StartChar: V
Encoding: 86 86 56
Width: 618
Flags: W
LayerCount: 2
Fore
SplineSet
0 820 m 1,0,-1
 83 820 l 1,1,-1
 159 587 l 1,2,-1
 459 587 l 1,3,-1
 535 820 l 1,4,-1
 618 820 l 1,5,-1
 351 0 l 1,6,-1
 267 0 l 1,7,-1
 0 820 l 1,0,-1
309 129 m 1,8,-1
 433 507 l 1,9,-1
 185 507 l 1,10,-1
 309 129 l 1,8,-1
EndSplineSet
EndChar

StartChar: W
Encoding: 87 87 57
Width: 660
Flags: W
LayerCount: 2
Fore
SplineSet
45 416 m 256,0,1
 45 595 45 595 127.5 719.5 c 128,-1,2
 210 844 210 844 330 844 c 256,3,4
 450 844 450 844 532.5 719.5 c 128,-1,5
 615 595 615 595 615 416 c 256,6,7
 615 237 615 237 532.5 112.5 c 128,-1,8
 450 -12 450 -12 330 -12 c 256,9,10
 210 -12 210 -12 127.5 112.5 c 128,-1,11
 45 237 45 237 45 416 c 256,0,1
125 416 m 0,12,13
 125 271 125 271 178.5 169.5 c 128,-1,14
 232 68 232 68 330 68 c 0,15,16
 427 68 427 68 481 169.5 c 128,-1,17
 535 271 535 271 535 416 c 0,18,19
 535 560 535 560 481 662 c 128,-1,20
 427 764 427 764 330 764 c 0,21,22
 232 764 232 764 178.5 662 c 128,-1,23
 125 560 125 560 125 416 c 0,12,13
173 376 m 1,24,-1
 173 456 l 1,25,-1
 487 456 l 1,26,-1
 487 376 l 1,27,-1
 173 376 l 1,24,-1
EndSplineSet
EndChar

StartChar: X
Encoding: 88 88 58
Width: 748
Flags: W
LayerCount: 2
Fore
SplineSet
200 769 m 0,0,1
 235 820 235 820 283 820 c 0,2,3
 334 820 334 820 370 769 c 0,4,5
 386 745 386 745 394 712 c 1,6,-1
 327 678 l 1,7,8
 321 697 321 697 315 710 c 0,9,10
 302 740 302 740 285 740 c 0,11,12
 271 740 271 740 258 710 c 0,13,14
 250 694 250 694 248 665 c 2,15,-1
 248 622 l 1,16,-1
 248 450 l 1,17,-1
 416 450 l 1,18,-1
 416 370 l 1,19,-1
 248 370 l 1,20,-1
 248 223 l 1,21,-1
 557 90 l 2,22,23
 600 72 600 72 627 78 c 0,24,25
 653 84 653 84 658 103 c 0,26,27
 663 123 663 123 647 149 c 0,28,29
 639 161 639 161 621 171 c 1,30,-1
 675 225 l 1,31,32
 703 206 703 206 716 181 c 0,33,34
 748 128 748 128 731 75 c 0,35,36
 714 23 714 23 658 6 c 0,37,38
 609 -11 609 -11 529 13 c 1,39,-1
 248 143 l 1,40,41
 233 85 233 85 209 51 c 0,42,43
 175 0 175 0 125 0 c 1,44,45
 59 7 59 7 18 76 c 0,46,47
 -9 128 -9 128 4 181 c 0,48,49
 20 235 20 235 75 253 c 0,50,51
 114 266 114 266 168 249 c 1,52,-1
 168 370 l 1,53,-1
 1 370 l 1,54,-1
 1 450 l 1,55,-1
 168 450 l 1,56,-1
 168 622 l 2,57,58
 169 720 169 720 200 769 c 0,0,1
89 105 m 0,59,60
 107 80 107 80 125 80 c 0,61,62
 141 80 141 80 154 110 c 0,63,64
 164 130 164 130 167 165 c 1,65,66
 156 179 156 179 138.5 183.5 c 128,-1,67
 121 188 121 188 103 183 c 0,68,69
 83 174 83 174 77 155 c 0,70,71
 74 127 74 127 89 105 c 0,59,60
EndSplineSet
EndChar

StartChar: Y
Encoding: 89 89 59
Width: 562
Flags: W
LayerCount: 2
Fore
SplineSet
241 0 m 1,0,-1
 241 320 l 1,1,2
 221 307 221 307 215 279 c 0,3,4
 202 228 202 228 202 135 c 1,5,-1
 122 135 l 1,6,7
 122 251 122 251 168 331 c 0,8,9
 200 385 200 385 241 402 c 1,10,-1
 241 415 l 1,11,12
 168 435 168 435 114 529 c 0,13,14
 45 648 45 648 45 820 c 1,15,-1
 125 820 l 1,16,17
 125 682 125 682 163 586 c 0,18,19
 191 516 191 516 241 497 c 1,20,-1
 241 820 l 1,21,-1
 321 820 l 1,22,-1
 321 497 l 1,23,24
 370 516 370 516 399 586 c 0,25,26
 437 682 437 682 437 820 c 1,27,-1
 517 820 l 1,28,29
 517 648 517 648 448 529 c 0,30,31
 394 435 394 435 321 415 c 1,32,-1
 321 402 l 1,33,34
 361 384 361 384 392 330 c 0,35,36
 439 251 439 251 439 135 c 1,37,-1
 359 135 l 1,38,39
 359 228 359 228 346 279 c 0,40,41
 339 306 339 306 321 319 c 1,42,-1
 321 0 l 1,43,-1
 241 0 l 1,0,-1
EndSplineSet
EndChar

StartChar: Z
Encoding: 90 90 60
Width: 665
Flags: W
LayerCount: 2
Fore
SplineSet
45 820 m 1,0,-1
 443 820 l 1,1,-1
 484 820 l 1,2,-1
 484 740 l 1,3,-1
 325 553 l 1,4,-1
 620 553 l 1,5,-1
 620 477 l 1,6,-1
 495 329 l 1,7,-1
 288 80 l 1,8,-1
 620 80 l 1,9,-1
 620 0 l 1,10,-1
 180 0 l 1,11,-1
 180 80 l 1,12,-1
 339 265 l 1,13,-1
 45 265 l 1,14,-1
 45 341 l 1,15,-1
 45 342 l 1,16,-1
 377 740 l 1,17,-1
 45 740 l 1,18,-1
 45 820 l 1,0,-1
515 477 m 1,19,-1
 261 477 l 1,20,-1
 148 341 l 1,21,-1
 402 341 l 1,22,-1
 515 477 l 1,19,-1
EndSplineSet
EndChar

StartChar: bracketleft
Encoding: 91 91 61
Width: 282
Flags: W
LayerCount: 2
Fore
SplineSet
237 852 m 1,0,-1
 237 772 l 1,1,-1
 157 772 l 1,2,-1
 157 -124 l 1,3,-1
 237 -124 l 1,4,-1
 237 -204 l 1,5,-1
 157 -204 l 1,6,-1
 77 -204 l 1,7,-1
 77 -124 l 1,8,-1
 77 772 l 1,9,-1
 77 852 l 1,10,-1
 157 852 l 1,11,-1
 237 852 l 1,0,-1
EndSplineSet
EndChar

StartChar: backslash
Encoding: 92 92 62
Width: 435
Flags: WO
LayerCount: 2
Fore
SplineSet
435 0 m 5,0,-1
 87 820 l 5,1,-1
 0 820 l 5,2,-1
 348 0 l 5,3,-1
 435 0 l 5,0,-1
EndSplineSet
EndChar

StartChar: bracketright
Encoding: 93 93 63
Width: 282
Flags: W
LayerCount: 2
Fore
SplineSet
45 852 m 1,0,-1
 125 852 l 1,1,-1
 205 852 l 1,2,-1
 205 772 l 1,3,-1
 205 -124 l 1,4,-1
 205 -204 l 1,5,-1
 125 -204 l 1,6,-1
 45 -204 l 1,7,-1
 45 -124 l 1,8,-1
 125 -124 l 1,9,-1
 125 772 l 1,10,-1
 45 772 l 1,11,-1
 45 852 l 1,0,-1
EndSplineSet
EndChar

StartChar: underscore
Encoding: 95 95 65
Width: 634
Flags: W
LayerCount: 2
Fore
SplineSet
589 0 m 1,0,-1
 45 0 l 1,1,-1
 45 80 l 1,2,-1
 589 80 l 1,3,-1
 589 0 l 1,0,-1
EndSplineSet
EndChar

StartChar: a
Encoding: 97 97 67
Width: 234
Flags: W
LayerCount: 2
Fore
SplineSet
77 0 m 1,0,-1
 77 544 l 1,1,-1
 157 544 l 1,2,-1
 157 0 l 1,3,-1
 77 0 l 1,0,-1
EndSplineSet
EndChar

StartChar: b
Encoding: 98 98 68
Width: 587
Flags: W
LayerCount: 2
Fore
SplineSet
517 290 m 256,0,1
 517 153 517 153 444 70.5 c 128,-1,2
 371 -12 371 -12 268 -12 c 0,3,4
 187 -12 187 -12 125 38 c 1,5,-1
 125 0 l 1,6,-1
 45 0 l 1,7,-1
 45 156 l 1,8,-1
 45 428 l 1,9,-1
 45 852 l 1,10,-1
 125 852 l 1,11,-1
 125 524 l 1,12,13
 187 568 187 568 268 568 c 0,14,15
 371 568 371 568 444 497.5 c 128,-1,16
 517 427 517 427 517 290 c 256,0,1
126 414 m 1,17,-1
 125 414 l 1,18,-1
 125 162 l 1,19,20
 134 147 134 147 144 134 c 0,21,22
 201 68 201 68 268 68 c 256,23,24
 335 68 335 68 386 128.5 c 128,-1,25
 437 189 437 189 437 290 c 256,26,27
 437 391 437 391 386 439.5 c 128,-1,28
 335 488 335 488 268 488 c 256,29,30
 201 488 201 488 136 425 c 0,31,32
 131 420 131 420 126 414 c 1,17,-1
EndSplineSet
EndChar

StartChar: c
Encoding: 99 99 69
Width: 587
Flags: W
LayerCount: 2
Fore
SplineSet
542 0 m 1,0,-1
 462 0 l 1,1,-1
 462 290 l 2,2,3
 462 391 462 391 415 435.5 c 128,-1,4
 368 480 368 480 293 480 c 0,5,6
 222 480 222 480 176 435 c 0,7,8
 136 397 136 397 126 318 c 1,9,-1
 126 0 l 1,10,-1
 46 0 l 1,11,-1
 46 290 l 1,12,-1
 45 290 l 1,13,14
 45 427 45 427 117.5 497.5 c 128,-1,15
 190 568 190 568 293 568 c 0,16,17
 391 568 391 568 462 504 c 1,18,-1
 462 852 l 1,19,-1
 542 852 l 1,20,-1
 542 290 l 1,21,-1
 542 0 l 1,0,-1
EndSplineSet
EndChar

StartChar: d
Encoding: 100 100 70
Width: 587
Flags: W
LayerCount: 2
Fore
SplineSet
45 290 m 0,0,1
 45 427 45 427 118 497.5 c 128,-1,2
 191 568 191 568 294 568 c 256,3,4
 397 568 397 568 469.5 497.5 c 128,-1,5
 542 427 542 427 542 290 c 0,6,7
 542 161 542 161 477 80 c 1,8,-1
 542 80 l 1,9,-1
 542 0 l 1,10,-1
 357 0 l 2,11,12
 354 -1 354 -1 352 -1 c 2,13,-1
 352 0 l 1,14,-1
 352 80 l 1,15,-1
 352 81 l 1,16,17
 384 96 384 96 411 128 c 0,18,19
 462 189 462 189 462 290 c 256,20,21
 462 391 462 391 411.5 439.5 c 128,-1,22
 361 488 361 488 294 488 c 256,23,24
 227 488 227 488 176 439.5 c 128,-1,25
 125 391 125 391 125 290 c 256,26,27
 125 189 125 189 176 128 c 0,28,29
 204 96 204 96 234 81 c 1,30,-1
 234 80 l 1,31,-1
 235 80 l 1,32,-1
 235 0 l 1,33,-1
 234 0 l 1,34,-1
 45 0 l 1,35,-1
 45 80 l 1,36,-1
 110 80 l 1,37,38
 45 161 45 161 45 290 c 0,0,1
EndSplineSet
EndChar

StartChar: e
Encoding: 101 101 71
Width: 587
Flags: W
LayerCount: 2
Fore
SplineSet
45 290 m 0,0,1
 45 427 45 427 118 497.5 c 128,-1,2
 191 568 191 568 294 568 c 256,3,4
 397 568 397 568 470 498 c 0,5,6
 531 438 531 438 540 338 c 1,7,-1
 542 338 l 1,8,-1
 542 298 l 1,9,-1
 542 258 l 1,10,-1
 125 258 l 1,11,12
 134 176 134 176 173 133 c 0,13,14
 222 76 222 76 293 68 c 1,15,16
 380 68 380 68 428 124 c 0,17,18
 442 140 442 140 452 159 c 1,19,-1
 520 103 l 1,20,21
 508 85 508 85 494 70 c 0,22,23
 418 -12 418 -12 308 -12 c 0,24,25
 199 -12 199 -12 122 70 c 0,26,27
 57 140 57 140 47 249 c 0,28,29
 45 269 45 269 45 290 c 0,0,1
406 443 m 0,30,31
 358 488 358 488 287 488 c 256,32,33
 216 488 216 488 167 444 c 0,34,35
 129 408 129 408 125 338 c 1,36,-1
 462 338 l 1,37,38
 444 408 444 408 406 443 c 0,30,31
EndSplineSet
EndChar

StartChar: f
Encoding: 102 102 72
Width: 594
Flags: W
LayerCount: 2
Fore
SplineSet
45 290 m 256,0,1
 45 427 45 427 111.5 497.5 c 128,-1,2
 178 568 178 568 273 568 c 0,3,4
 367 568 367 568 434 498 c 0,5,6
 498 430 498 430 500 300 c 0,7,8
 500 295 500 295 500 290 c 2,9,-1
 500 266 l 2,10,11
 500 165 500 165 500 121 c 0,12,13
 502 112 502 112 505 105 c 0,14,15
 517 76 517 76 542 76 c 256,16,17
 567 76 567 76 579 105 c 1,18,-1
 639 64 l 1,19,-1
 637 58 l 1,20,21
 606 -12 606 -12 542 -12 c 256,22,23
 478 -12 478 -12 447 58 c 1,24,-1
 445 64 l 2,25,26
 443 73 443 73 441 84 c 1,27,28
 438 77 438 77 434 71 c 0,29,30
 367 -12 367 -12 273 -12 c 0,31,32
 178 -12 178 -12 111.5 70.5 c 128,-1,33
 45 153 45 153 45 290 c 256,0,1
122 290 m 256,34,35
 122 189 122 189 167.5 128.5 c 128,-1,36
 213 68 213 68 273 68 c 0,37,38
 332 68 332 68 377 129 c 0,39,40
 416 181 416 181 420 263 c 1,41,-1
 420 317 l 1,42,43
 416 398 416 398 377 440 c 0,44,45
 332 488 332 488 273 488 c 0,46,47
 213 488 213 488 167.5 439.5 c 128,-1,48
 122 391 122 391 122 290 c 256,34,35
EndSplineSet
EndChar

StartChar: g
Encoding: 103 103 73
Width: 587
Flags: W
LayerCount: 2
Fore
SplineSet
45 318 m 0,0,1
 45 470 45 470 118 544 c 1,2,-1
 176 486 l 1,3,4
 125 433 125 433 125 318 c 0,5,6
 125 204 125 204 176 135 c 0,7,8
 211 87 211 87 253 73 c 1,9,-1
 253 74 l 1,10,-1
 253 568 l 1,11,12
 397 568 397 568 469 497 c 0,13,14
 542 427 542 427 542 290 c 256,15,16
 542 153 542 153 470 71 c 0,17,18
 411 4 411 4 333 -9 c 1,19,-1
 333 -284 l 1,20,-1
 253 -284 l 1,21,-1
 253 -9 l 1,22,23
 176 4 176 4 118 76 c 0,24,25
 45 167 45 167 45 318 c 0,0,1
412 129 m 0,26,27
 462 189 462 189 462 290 c 256,28,29
 462 391 462 391 412 440 c 0,30,31
 376 473 376 473 333 484 c 1,32,-1
 333 74 l 1,33,34
 376 86 376 86 412 129 c 0,26,27
EndSplineSet
EndChar

StartChar: h
Encoding: 104 104 74
Width: 587
Flags: W
LayerCount: 2
Fore
SplineSet
45 0 m 1,0,-1
 45 290 l 1,1,-1
 45 852 l 1,2,-1
 125 852 l 1,3,-1
 125 504 l 1,4,5
 196 568 196 568 294 568 c 0,6,7
 397 568 397 568 469.5 497.5 c 128,-1,8
 542 427 542 427 541 290 c 2,9,-1
 541 0 l 1,10,-1
 461 0 l 1,11,-1
 461 317 l 1,12,13
 455 398 455 398 411 439 c 0,14,15
 361 488 361 488 294 488 c 256,16,17
 227 488 227 488 176 439.5 c 128,-1,18
 125 391 125 391 125 290 c 2,19,-1
 125 0 l 1,20,-1
 45 0 l 1,0,-1
EndSplineSet
EndChar

StartChar: i
Encoding: 105 105 75
Width: 565
Flags: W
LayerCount: 2
Fore
SplineSet
45 290 m 256,0,1
 45 427 45 427 118 497.5 c 128,-1,2
 191 568 191 568 294 568 c 256,3,4
 397 568 397 568 470 497 c 0,5,6
 499 468 499 468 517 428 c 1,7,-1
 422 428 l 1,8,9
 417 434 417 434 412 439 c 0,10,11
 361 488 361 488 294 488 c 256,12,13
 227 488 227 488 176 439.5 c 128,-1,14
 125 391 125 391 125 290 c 256,15,16
 125 189 125 189 176 128.5 c 128,-1,17
 227 68 227 68 294 68 c 256,18,19
 361 68 361 68 412 128 c 0,20,21
 422 141 422 141 431 156 c 1,22,-1
 520 156 l 1,23,24
 502 108 502 108 470 70 c 0,25,26
 397 -12 397 -12 294 -12 c 256,27,28
 191 -12 191 -12 118 70.5 c 128,-1,29
 45 153 45 153 45 290 c 256,0,1
EndSplineSet
EndChar

StartChar: j
Encoding: 106 106 76
Width: 587
Flags: W
LayerCount: 2
Fore
SplineSet
45 159 m 1,0,-1
 125 159 l 1,1,2
 125 119 125 119 176 93 c 0,3,4
 227 68 227 68 294 68 c 256,5,6
 361 68 361 68 411.5 93.5 c 128,-1,7
 462 119 462 119 462 157 c 0,8,9
 462 197 462 197 411.5 217 c 128,-1,10
 361 237 361 237 294 237 c 0,11,12
 191 237 191 237 119 277 c 0,13,14
 46 316 46 316 46 396 c 0,15,16
 46 473 46 473 118.5 520.5 c 128,-1,17
 191 568 191 568 294 568 c 256,18,19
 397 568 397 568 470 520.5 c 128,-1,20
 543 473 543 473 543 394 c 1,21,-1
 463 394 l 1,22,23
 463 434 463 434 412 460 c 0,24,25
 361 488 361 488 294 488 c 256,26,27
 227 488 227 488 176.5 461 c 128,-1,28
 126 434 126 434 126 396 c 0,29,30
 126 356 126 356 176.5 336 c 128,-1,31
 227 316 227 316 294 316 c 0,32,33
 397 316 397 316 470 277 c 0,34,35
 542 237 542 237 542 157 c 0,36,37
 542 80 542 80 469.5 34 c 128,-1,38
 397 -12 397 -12 294 -12 c 256,39,40
 191 -12 191 -12 118 34 c 128,-1,41
 45 80 45 80 45 159 c 1,0,-1
EndSplineSet
EndChar

StartChar: k
Encoding: 107 107 77
Width: 270
Flags: W
LayerCount: 2
Fore
SplineSet
204 0 m 1,0,-1
 124 0 l 1,1,-1
 124 574 l 2,2,3
 124 675 124 675 73 723 c 0,4,5
 22 772 22 772 -45 772 c 1,6,-1
 -45 852 l 1,7,8
 58 852 58 852 131 781 c 0,9,10
 204 711 204 711 204 574 c 2,11,-1
 204 0 l 1,0,-1
EndSplineSet
EndChar

StartChar: l
Encoding: 108 108 78
Width: 234
Flags: W
LayerCount: 2
Fore
SplineSet
77 0 m 1,0,-1
 77 852 l 1,1,-1
 157 852 l 1,2,-1
 157 0 l 1,3,-1
 77 0 l 1,0,-1
EndSplineSet
EndChar

StartChar: m
Encoding: 109 109 79
Width: 587
Flags: W
LayerCount: 2
Fore
SplineSet
61 68 m 1,0,-1
 61 568 l 1,1,-1
 63 568 l 2,2,3
 278 568 278 568 418 497 c 0,4,5
 558 427 558 427 558 290 c 256,6,7
 558 153 558 153 417 70.5 c 128,-1,8
 276 -12 276 -12 61 0 c 1,9,-1
 61 68 l 1,0,-1
351 128 m 0,10,11
 479 189 479 189 479 290 c 256,12,13
 479 391 479 391 350 440 c 0,14,15
 254 476 254 476 141 485 c 1,16,-1
 141 72 l 1,17,18
 255 83 255 83 351 128 c 0,10,11
EndSplineSet
EndChar

StartChar: n
Encoding: 110 110 80
Width: 587
Flags: W
LayerCount: 2
Fore
SplineSet
45 0 m 1,0,-1
 45 290 l 1,1,-1
 45 544 l 1,2,-1
 125 544 l 1,3,-1
 125 504 l 1,4,5
 196 568 196 568 294 568 c 0,6,7
 397 568 397 568 469.5 497.5 c 128,-1,8
 542 427 542 427 541 290 c 2,9,-1
 541 0 l 1,10,-1
 461 0 l 1,11,-1
 461 317 l 1,12,13
 455 398 455 398 411 439 c 0,14,15
 361 488 361 488 294 488 c 256,16,17
 227 488 227 488 176 439.5 c 128,-1,18
 125 391 125 391 125 290 c 2,19,-1
 125 0 l 1,20,-1
 45 0 l 1,0,-1
EndSplineSet
EndChar

StartChar: o
Encoding: 111 111 81
Width: 565
Flags: W
LayerCount: 2
Fore
SplineSet
519 290 m 256,0,1
 519 153 519 153 446 70.5 c 128,-1,2
 373 -12 373 -12 270 -12 c 256,3,4
 167 -12 167 -12 94 70 c 0,5,6
 62 108 62 108 44 156 c 1,7,-1
 133 156 l 1,8,9
 142 141 142 141 152 128 c 0,10,11
 203 68 203 68 270 68 c 256,12,13
 337 68 337 68 388 128.5 c 128,-1,14
 439 189 439 189 439 290 c 256,15,16
 439 391 439 391 388 439.5 c 128,-1,17
 337 488 337 488 270 488 c 256,18,19
 203 488 203 488 152 439 c 0,20,21
 147 434 147 434 142 428 c 1,22,-1
 47 428 l 1,23,24
 65 468 65 468 94 497 c 0,25,26
 167 568 167 568 270 568 c 256,27,28
 373 568 373 568 446 497.5 c 128,-1,29
 519 427 519 427 519 290 c 256,0,1
EndSplineSet
EndChar

StartChar: p
Encoding: 112 112 82
Width: 587
Flags: W
LayerCount: 2
Fore
SplineSet
45 290 m 256,0,1
 45 427 45 427 118 497.5 c 128,-1,2
 191 568 191 568 294 568 c 0,3,4
 375 568 375 568 437 524 c 1,5,-1
 437 852 l 1,6,-1
 517 852 l 1,7,-1
 517 428 l 1,8,-1
 517 156 l 1,9,-1
 517 0 l 1,10,-1
 437 0 l 1,11,-1
 437 38 l 1,12,13
 375 -12 375 -12 294 -12 c 0,14,15
 191 -12 191 -12 118 70.5 c 128,-1,16
 45 153 45 153 45 290 c 256,0,1
436 414 m 1,17,18
 431 420 431 420 426 425 c 0,19,20
 361 488 361 488 294 488 c 256,21,22
 227 488 227 488 176 439.5 c 128,-1,23
 125 391 125 391 125 290 c 256,24,25
 125 189 125 189 176 128.5 c 128,-1,26
 227 68 227 68 294 68 c 256,27,28
 361 68 361 68 418 134 c 0,29,30
 428 147 428 147 437 162 c 1,31,-1
 437 414 l 1,32,-1
 436 414 l 1,17,18
EndSplineSet
EndChar

StartChar: q
Encoding: 113 113 83
Width: 587
Flags: W
LayerCount: 2
Fore
SplineSet
45 159 m 1,0,-1
 125 159 l 1,1,2
 125 119 125 119 176 93 c 0,3,4
 227 68 227 68 294 68 c 256,5,6
 361 68 361 68 411.5 93.5 c 128,-1,7
 462 119 462 119 462 157 c 0,8,9
 462 197 462 197 411.5 217 c 128,-1,10
 361 237 361 237 294 237 c 1,11,-1
 294 316 l 1,12,13
 361 316 361 316 412 336 c 0,14,15
 462 356 462 356 462 396 c 0,16,17
 462 434 462 434 411.5 461 c 128,-1,18
 361 488 361 488 294 488 c 256,19,20
 227 488 227 488 176 460 c 0,21,22
 125 434 125 434 125 394 c 1,23,-1
 45 394 l 1,24,25
 45 473 45 473 118 520.5 c 128,-1,26
 191 568 191 568 294 568 c 256,27,28
 397 568 397 568 469.5 520.5 c 128,-1,29
 542 473 542 473 542 396 c 0,30,31
 542 316 542 316 469 277 c 1,32,33
 470 277 470 277 470 277 c 1,34,35
 542 237 542 237 542 157 c 0,36,37
 542 80 542 80 469.5 34 c 128,-1,38
 397 -12 397 -12 294 -12 c 256,39,40
 191 -12 191 -12 118 34 c 128,-1,41
 45 80 45 80 45 159 c 1,0,-1
EndSplineSet
EndChar

StartChar: r
Encoding: 114 114 84
Width: 587
Flags: W
LayerCount: 2
Fore
SplineSet
45 544 m 1,0,-1
 125 544 l 1,1,-1
 125 266 l 1,2,3
 133 165 133 165 176 120.5 c 128,-1,4
 219 76 219 76 294 76 c 0,5,6
 365 76 365 76 411 121 c 0,7,8
 451 159 451 159 461 238 c 1,9,-1
 461 544 l 1,10,-1
 541 544 l 1,11,-1
 541 266 l 1,12,-1
 542 266 l 1,13,14
 542 129 542 129 469.5 58.5 c 128,-1,15
 397 -12 397 -12 294 -12 c 0,16,17
 196 -12 196 -12 125 52 c 1,18,-1
 125 -284 l 1,19,-1
 45 -284 l 1,20,-1
 45 266 l 1,21,-1
 45 544 l 1,0,-1
EndSplineSet
EndChar

StartChar: s
Encoding: 115 115 85
Width: 270
Flags: W
LayerCount: 2
Fore
SplineSet
204 544 m 1,0,-1
 204 -6 l 2,1,2
 204 -143 204 -143 131 -213 c 0,3,4
 58 -284 58 -284 -45 -284 c 1,5,-1
 -45 -204 l 1,6,7
 22 -204 22 -204 73 -155 c 0,8,9
 124 -107 124 -107 124 -6 c 2,10,-1
 124 544 l 1,11,-1
 204 544 l 1,0,-1
EndSplineSet
EndChar

StartChar: t
Encoding: 116 116 86
Width: 270
Flags: W
LayerCount: 2
Fore
SplineSet
66 0 m 1,0,-1
 66 574 l 2,1,2
 66 711 66 711 139 781 c 0,3,4
 212 852 212 852 315 852 c 1,5,-1
 315 772 l 1,6,7
 248 772 248 772 197 723 c 0,8,9
 146 675 146 675 146 574 c 2,10,-1
 146 0 l 1,11,-1
 66 0 l 1,0,-1
EndSplineSet
EndChar

StartChar: u
Encoding: 117 117 87
Width: 587
Flags: W
LayerCount: 2
Fore
SplineSet
541 266 m 0,0,1
 541 129 541 129 468 58.5 c 128,-1,2
 395 -12 395 -12 292 -12 c 256,3,4
 189 -12 189 -12 116 58 c 0,5,6
 55 118 55 118 46 218 c 1,7,-1
 44 218 l 1,8,-1
 44 258 l 1,9,-1
 44 298 l 1,10,-1
 461 298 l 1,11,12
 452 380 452 380 413 423 c 0,13,14
 364 480 364 480 293 488 c 1,15,16
 206 488 206 488 158 432 c 0,17,18
 144 416 144 416 134 397 c 1,19,-1
 66 453 l 1,20,21
 78 471 78 471 92 486 c 0,22,23
 168 568 168 568 278 568 c 0,24,25
 387 568 387 568 464 486 c 0,26,27
 529 416 529 416 539 307 c 0,28,29
 541 287 541 287 541 266 c 0,0,1
180 113 m 0,30,31
 228 68 228 68 299 68 c 256,32,33
 370 68 370 68 419 112 c 0,34,35
 457 148 457 148 461 218 c 1,36,-1
 124 218 l 1,37,38
 142 148 142 148 180 113 c 0,30,31
EndSplineSet
EndChar

StartChar: v
Encoding: 118 118 88
Width: 587
Flags: W
LayerCount: 2
Fore
SplineSet
541 544 m 1,0,-1
 541 266 l 1,1,-1
 541 12 l 1,2,-1
 461 12 l 1,3,-1
 461 52 l 1,4,5
 390 -12 390 -12 292 -12 c 0,6,7
 189 -12 189 -12 116.5 58.5 c 128,-1,8
 44 129 44 129 45 266 c 2,9,-1
 45 544 l 1,10,-1
 125 544 l 1,11,-1
 125 239 l 1,12,13
 131 158 131 158 175 117 c 0,14,15
 225 68 225 68 292 68 c 256,16,17
 359 68 359 68 410 116.5 c 128,-1,18
 461 165 461 165 461 266 c 2,19,-1
 461 544 l 1,20,-1
 541 544 l 1,0,-1
EndSplineSet
EndChar

StartChar: w
Encoding: 119 119 89
Width: 587
Flags: W
LayerCount: 2
Fore
SplineSet
45 290 m 256,0,1
 45 427 45 427 118 497.5 c 128,-1,2
 191 568 191 568 294 568 c 256,3,4
 397 568 397 568 469.5 497.5 c 128,-1,5
 542 427 542 427 542 290 c 256,6,7
 542 153 542 153 469.5 70.5 c 128,-1,8
 397 -12 397 -12 294 -12 c 256,9,10
 191 -12 191 -12 118 70.5 c 128,-1,11
 45 153 45 153 45 290 c 256,0,1
125 290 m 256,12,13
 125 189 125 189 176 128.5 c 128,-1,14
 227 68 227 68 294 68 c 256,15,16
 361 68 361 68 411.5 128.5 c 128,-1,17
 462 189 462 189 462 290 c 256,18,19
 462 391 462 391 411.5 439.5 c 128,-1,20
 361 488 361 488 294 488 c 256,21,22
 227 488 227 488 176 439.5 c 128,-1,23
 125 391 125 391 125 290 c 256,12,13
EndSplineSet
EndChar

StartChar: x
Encoding: 120 120 90
Width: 360
Flags: W
LayerCount: 2
Fore
SplineSet
66 852 m 1,0,-1
 146 852 l 1,1,-1
 146 278 l 2,2,3
 146 177 146 177 197 129 c 0,4,5
 248 80 248 80 315 80 c 1,6,-1
 315 0 l 1,7,8
 212 0 212 0 139 71 c 0,9,10
 66 141 66 141 66 278 c 2,11,-1
 66 852 l 1,0,-1
EndSplineSet
EndChar

StartChar: y
Encoding: 121 121 91
Width: 587
Flags: W
LayerCount: 2
Fore
SplineSet
542 544 m 1,0,-1
 542 266 l 1,1,-1
 542 -284 l 1,2,-1
 462 -284 l 1,3,-1
 462 52 l 1,4,5
 391 -12 391 -12 293 -12 c 0,6,7
 190 -12 190 -12 117.5 58.5 c 128,-1,8
 45 129 45 129 46 266 c 2,9,-1
 46 544 l 1,10,-1
 126 544 l 1,11,-1
 126 239 l 1,12,13
 132 158 132 158 176 117 c 0,14,15
 226 68 226 68 293 68 c 256,16,17
 360 68 360 68 411 116.5 c 128,-1,18
 462 165 462 165 462 266 c 2,19,-1
 462 544 l 1,20,-1
 542 544 l 1,0,-1
EndSplineSet
EndChar

StartChar: z
Encoding: 122 122 92
Width: 587
Flags: W
LayerCount: 2
Fore
SplineSet
45 544 m 1,0,-1
 141 544 l 1,1,-1
 542 544 l 1,2,-1
 542 464 l 1,3,-1
 542 444 l 1,4,-1
 141 80 l 1,5,-1
 542 80 l 1,6,-1
 542 0 l 1,7,-1
 45 0 l 1,8,-1
 45 80 l 1,9,-1
 45 99 l 1,10,-1
 444 464 l 1,11,-1
 45 464 l 1,12,-1
 45 544 l 1,0,-1
EndSplineSet
EndChar

StartChar: braceleft
Encoding: 123 123 93
Width: 402
Flags: W
LayerCount: 2
Fore
SplineSet
357 852 m 1,0,-1
 357 772 l 1,1,-1
 277 772 l 1,2,-1
 277 475 l 1,3,-1
 277 405 l 1,4,-1
 277 404 l 1,5,-1
 117 324 l 1,6,-1
 277 244 l 1,7,-1
 277 243 l 1,8,-1
 277 173 l 1,9,-1
 277 -124 l 1,10,-1
 357 -124 l 1,11,-1
 357 -204 l 1,12,-1
 277 -204 l 1,13,-1
 197 -204 l 1,14,-1
 197 -124 l 1,15,-1
 197 196 l 1,16,-1
 0 295 l 1,17,-1
 0 324 l 1,18,-1
 0 353 l 1,19,-1
 197 452 l 1,20,-1
 197 772 l 1,21,-1
 197 852 l 1,22,-1
 277 852 l 1,23,-1
 357 852 l 1,0,-1
EndSplineSet
EndChar

StartChar: bar
Encoding: 124 124 94
Width: 170
Flags: W
LayerCount: 2
Fore
SplineSet
45 -284 m 1,0,-1
 45 852 l 1,1,-1
 125 852 l 1,2,-1
 125 -284 l 1,3,-1
 45 -284 l 1,0,-1
EndSplineSet
EndChar

StartChar: braceright
Encoding: 125 125 95
Width: 402
Flags: W
LayerCount: 2
Fore
SplineSet
45 852 m 1,0,-1
 125 852 l 1,1,-1
 205 852 l 1,2,-1
 205 772 l 1,3,-1
 205 452 l 1,4,-1
 402 353 l 1,5,-1
 402 324 l 1,6,-1
 402 295 l 1,7,-1
 205 196 l 1,8,-1
 205 -124 l 1,9,-1
 205 -204 l 1,10,-1
 125 -204 l 1,11,-1
 45 -204 l 1,12,-1
 45 -124 l 1,13,-1
 125 -124 l 1,14,-1
 125 173 l 1,15,-1
 125 243 l 1,16,-1
 125 244 l 1,17,-1
 285 324 l 1,18,-1
 125 404 l 1,19,-1
 125 405 l 1,20,-1
 125 475 l 1,21,-1
 125 772 l 1,22,-1
 45 772 l 1,23,-1
 45 852 l 1,0,-1
EndSplineSet
EndChar

